<?xml version="1.0" encoding="utf-8"?>
<!-- Generator: Adobe Illustrator 16.0.0, SVG Export Plug-In . SVG Version: 6.00 Build 0)  -->
<!DOCTYPE svg PUBLIC "-//W3C//DTD SVG 1.1//EN" "http://www.w3.org/Graphics/SVG/1.1/DTD/svg11.dtd">
<svg version="1.1" id="Layer_1" xmlns="http://www.w3.org/2000/svg" xmlns:xlink="http://www.w3.org/1999/xlink" x="0px" y="0px"
	 width="100px" height="100px" viewBox="0 0 100 100" enable-background="new 0 0 100 100" xml:space="preserve">
<g>
	<path opacity="0.3" fill="#FFFFFF" d="M27.34,39.832c0-16.447,10.347-29.779,23.108-29.779c12.763,0,23.109,13.332,23.109,29.779
		H27.34z"/>
	<path d="M1.064,50.662c0-9.432,21.908-17.076,48.936-17.076c27.026,0,48.936,7.645,48.936,17.076
		c0,9.428-21.909,17.072-48.936,17.072C22.973,67.734,1.064,60.09,1.064,50.662z"/>
	<ellipse fill="#FED600" cx="49.999" cy="49.084" rx="44.007" ry="12.277"/>
	<ellipse fill="#B41F24" cx="12.231" cy="48.996" rx="4.057" ry="3.777"/>
	<ellipse fill="#ED1C24" cx="22.287" cy="51.906" rx="4.057" ry="3.779"/>
	<ellipse cx="32.602" cy="54.033" rx="4.057" ry="3.775"/>
	<path d="M47.71,54.873c0,2.086-1.816,3.775-4.057,3.775s-4.057-1.689-4.057-3.775c0-2.088,1.816-3.777,4.057-3.777
		S47.71,52.785,47.71,54.873z"/>
	<path d="M58.763,54.873c0,2.086-1.817,3.775-4.057,3.775c-2.241,0-4.058-1.689-4.058-3.775c0-2.088,1.816-3.777,4.058-3.777
		C56.945,51.096,58.763,52.785,58.763,54.873z"/>
	<ellipse cx="64.778" cy="54.033" rx="4.057" ry="3.775"/>
	<ellipse cx="75.271" cy="52.215" rx="4.057" ry="3.777"/>
	<ellipse cx="85.482" cy="49.557" rx="4.057" ry="3.777"/>
	<path d="M50.787,12.205c11.896,0,21.564,11.246,21.989,25.3h1.732c0-15.651-10.646-28.341-23.78-28.341
		c-13.133,0-23.779,12.689-23.779,28.341h1.847C29.222,23.451,38.89,12.205,50.787,12.205z"/>
	<ellipse cx="44.87" cy="25.331" rx="6.295" ry="5.885"/>
	<path opacity="0.8" fill="#FFFFFF" d="M55.817,15.068c0,0,13.959,5.199,13.959,16.968h-7.664
		C62.112,32.036,63.186,19.726,55.817,15.068z"/>
	<polygon points="28.997,62.689 25.986,78.836 29.544,78.836 36.386,63.51 	"/>
	<polygon points="70.597,62.689 73.606,78.836 70.049,78.836 63.206,63.51 	"/>
</g>
</svg>
